<svg xmlns="http://www.w3.org/2000/svg" width="16" height="16" viewBox="0 0 16 16" fill="none" role="img" class="icon ">
<path fill-rule="evenodd" clip-rule="evenodd" d="M0 8C0 12.4183 3.58172 16 8 16C12.4183 16 16 12.4183 16 8C16 3.58172 12.4183 0 8 0C3.58172 0 0 3.58172 0 8ZM8.16504 6.24902V5.06161C8.16585 4.89576 8.09142 4.73031 7.94336 4.60411C7.64766 4.35128 7.16872 4.35128 6.87302 4.60411L3.31087 7.6505L6.87302 10.6969C7.02107 10.8231 7.21443 10.8866 7.40819 10.8866C7.60195 10.8866 7.79531 10.8235 7.94336 10.6969C8.09142 10.5707 8.16585 10.4048 8.16504 10.2394V8.98145C10.8239 9.1121 12.2102 10.7855 12.2102 10.7855C12.2102 8.0174 10.5161 6.43227 8.16504 6.24902Z" fill="white"></path>
</svg>