<svg xmlns="http://www.w3.org/2000/svg"  viewBox="0 0 50 50" width="20px" height="20px"><path d="M 26.105469 2 C 19.824219 2 16.15625 4.222656 14.207031 6.890625 C 12.257813 9.558594 12 12.519531 12 14 C 12 16.242188 12.714844 18.703125 14.34375 20.65625 C 15.972656 22.613281 18.558594 24 22 24 C 22.136719 24 22.410156 23.992188 22.589844 24 C 22.476563 24.359375 22.332031 24.6875 22.332031 25.136719 C 22.332031 26.425781 22.691406 27.371094 23.171875 28.1875 C 20.070313 28.382813 16.882813 29.019531 14.238281 30.453125 C 11.074219 32.167969 8.65625 34.980469 8.65625 38.753906 C 8.65625 40.273438 9.273438 42.550781 11.25 44.511719 C 13.226563 46.472656 16.539063 48 21.695313 48 C 33.429688 48 37.445313 40.589844 37.445313 36.089844 C 37.445313 31.996094 35.191406 29.46875 33.144531 27.730469 C 32.121094 26.859375 31.140625 26.144531 30.484375 25.503906 C 29.824219 24.863281 29.550781 24.394531 29.550781 23.910156 C 29.550781 23.277344 29.769531 22.851563 30.234375 22.300781 C 30.699219 21.753906 31.417969 21.160156 32.191406 20.417969 C 33.738281 18.929688 35.441406 16.707031 35.441406 12.890625 C 35.441406 10.1875 34.527344 8.261719 33.425781 7 L 34 7 C 34.265625 7 34.519531 6.894531 34.707031 6.707031 L 37.707031 3.707031 C 37.992188 3.421875 38.078125 2.992188 37.921875 2.617188 C 37.769531 2.242188 37.40625 2 37 2 Z M 26.105469 4 L 34.585938 4 L 33.585938 5 L 30 5 C 29.453125 5.007813 29.015625 5.453125 29.015625 6 C 29.015625 6.546875 29.453125 6.992188 30 7 C 29.957031 7 30.289063 7.050781 30.648438 7.242188 C 31.007813 7.429688 31.445313 7.742188 31.859375 8.195313 C 32.683594 9.101563 33.441406 10.550781 33.441406 12.890625 C 33.441406 16.152344 32.203125 17.628906 30.800781 18.976563 C 30.101563 19.648438 29.351563 20.257813 28.710938 21.011719 C 28.070313 21.761719 27.550781 22.734375 27.550781 23.910156 C 27.550781 25.15625 28.265625 26.140625 29.089844 26.9375 C 29.910156 27.734375 30.902344 28.449219 31.847656 29.253906 C 33.746094 30.867188 35.445313 32.699219 35.445313 36.089844 C 35.445313 39.425781 32.605469 46 21.695313 46 C 16.925781 46 14.21875 44.636719 12.65625 43.089844 C 11.097656 41.542969 10.65625 39.699219 10.65625 38.753906 C 10.65625 35.808594 12.429688 33.707031 15.191406 32.210938 C 15.667969 31.953125 16.277344 31.847656 16.796875 31.636719 C 16.46875 31.914063 15.996094 32.140625 15.738281 32.445313 C 14.394531 34.027344 14.035156 35.785156 14.03125 37.03125 C 14.011719 39.921875 15.886719 41.964844 18.144531 43 C 20.402344 44.03125 23.082031 44.242188 25.296875 43.796875 C 27.953125 43.265625 29.6875 42.039063 30.695313 40.683594 C 31.703125 39.324219 32 37.902344 32 36.902344 C 32 32.792969 28.382813 30.472656 26.679688 29.199219 C 26.570313 29.113281 26.441406 29.054688 26.308594 29.023438 C 26.199219 29 26.109375 29.023438 26 29.003906 C 26 28.738281 25.894531 28.480469 25.707031 28.292969 C 24.765625 27.351563 24.332031 26.851563 24.332031 25.136719 C 24.332031 24.910156 24.453125 24.449219 24.59375 24.089844 C 24.738281 23.730469 24.875 23.484375 24.875 23.484375 C 25.054688 23.15625 25.039063 22.753906 24.832031 22.445313 C 24.625 22.132813 24.257813 21.964844 23.886719 22.003906 C 23.394531 22.0625 22.664063 22 22 22 C 19.074219 22 17.160156 20.910156 15.878906 19.375 C 14.601563 17.84375 14 15.808594 14 14 C 14 12.761719 14.246094 10.222656 15.820313 8.070313 C 17.394531 5.917969 20.28125 4 26.105469 4 Z M 22.566406 5 C 20.355469 5 18.859375 6.277344 18.113281 7.640625 C 17.367188 9.003906 17.203125 10.417969 17.203125 11.25 C 17.203125 13.71875 17.964844 16.085938 19.222656 17.890625 C 20.480469 19.699219 22.304688 21 24.40625 21 C 26.964844 21 28.476563 19.503906 29.058594 18.058594 C 29.347656 17.335938 29.457031 16.636719 29.5 16.082031 C 29.546875 15.527344 29.527344 15.03125 29.527344 15.035156 C 29.527344 13.871094 29.226563 11.585938 28.257813 9.390625 C 27.773438 8.292969 27.117188 7.222656 26.183594 6.390625 C 25.25 5.5625 24.011719 5 22.566406 5 Z M 22.566406 7 C 23.515625 7 24.21875 7.324219 24.855469 7.886719 C 25.488281 8.449219 26.023438 9.277344 26.425781 10.199219 C 27.238281 12.035156 27.527344 14.273438 27.527344 15.035156 C 27.527344 15.265625 27.542969 15.5 27.507813 15.921875 C 27.472656 16.339844 27.386719 16.851563 27.203125 17.3125 C 26.828125 18.238281 26.285156 19 24.40625 19 C 23.144531 19 21.863281 18.183594 20.863281 16.75 C 19.863281 15.3125 19.203125 13.300781 19.203125 11.25 C 19.203125 10.738281 19.359375 9.527344 19.867188 8.601563 C 20.375 7.675781 21.058594 7 22.566406 7 Z M 24.929688 30.910156 C 25.195313 30.917969 25.460938 30.933594 25.6875 30.96875 C 27.492188 32.3125 30 34.097656 30 36.902344 C 30 37.488281 29.800781 38.53125 29.089844 39.488281 C 28.378906 40.445313 27.160156 41.386719 24.902344 41.839844 C 24.902344 41.835938 24.902344 41.835938 24.902344 41.839844 C 23.136719 42.191406 20.765625 41.996094 18.976563 41.175781 C 17.1875 40.359375 16.015625 39.113281 16.03125 37.042969 C 16.035156 36.167969 16.28125 34.898438 17.265625 33.738281 C 18.246094 32.578125 20.003906 31.457031 23.269531 30.988281 C 23.28125 30.988281 23.289063 30.984375 23.296875 30.984375 C 23.296875 30.984375 24.128906 30.894531 24.929688 30.910156 Z"/></svg>