<svg width="16" height="16" viewBox="0 0 16 16" fill="none" xmlns="http://www.w3.org/2000/svg" svg-inline="" role="presentation" focusable="false" tabindex="-1"><path d="M14 8a6 6 0 01-8.256 5.561c-.134-.054-.2-.08-.254-.093a.606.606 0 00-.146-.016c-.055 0-.115.01-.236.03l-2.371.395c-.249.042-.373.062-.463.024a.333.333 0 01-.175-.175c-.038-.09-.018-.214.024-.463l.395-2.371c.02-.12.03-.18.03-.236a.606.606 0 00-.016-.146c-.012-.054-.04-.12-.093-.254A6 6 0 1114 8z" stroke="currentColor" stroke-width="1.5" stroke-linecap="round" stroke-linejoin="round"></path></svg>